<?xml version="1.0" encoding="utf-8"?>
<!-- Generator: Adobe Illustrator 27.2.0, SVG Export Plug-In . SVG Version: 6.00 Build 0)  -->
<svg version="1.1" id="Layer_1" xmlns="http://www.w3.org/2000/svg" xmlns:xlink="http://www.w3.org/1999/xlink" x="0px" y="0px"
	 viewBox="0 0 291.6 194.4" style="enable-background:new 0 0 291.6 194.4;" xml:space="preserve">
<style type="text/css">
	.st0{fill:#C75528;stroke:#000000;stroke-width:0.5;stroke-miterlimit:10;}
	.st1{fill:#F6D58E;stroke:#000000;stroke-width:0.5;stroke-miterlimit:10;}
	.st2{fill:#DC8A27;stroke:#000000;stroke-width:0.5;stroke-miterlimit:10;}
	.st3{fill:#2D8382;stroke:#000000;stroke-width:0.5;stroke-miterlimit:10;}
	.st4{fill:#9CAFB1;stroke:#000000;stroke-width:0.5;stroke-miterlimit:10;}
	.st5{fill:#6AABDD;stroke:#000000;stroke-width:0.5;stroke-miterlimit:10;}
	.st6{fill:#097AB5;stroke:#000000;stroke-width:0.5;stroke-miterlimit:10;}
	.st7{fill:#D77D8C;stroke:#000000;stroke-width:0.5;stroke-miterlimit:10;}
	.st8{fill:#231F20;}
	.st9{font-family:'ProximaNova-Medium';}
	.st10{font-size:11px;}
	.st11{font-family:'ProximaNova-Bold';}
	.st12{fill:none;stroke:#231F20;stroke-miterlimit:10;}
	.st13{fill:none;stroke:#231F20;stroke-linecap:round;stroke-miterlimit:10;stroke-dasharray:2;}
	.st14{fill:none;stroke:#231F20;stroke-linecap:round;stroke-miterlimit:10;}
	.st15{fill:none;stroke:#231F20;stroke-linecap:round;stroke-miterlimit:10;stroke-dasharray:1.9833,1.9833;}
	.st16{fill:none;stroke:#231F20;stroke-linecap:round;stroke-miterlimit:10;stroke-dasharray:1.9274,1.9274;}
	.st17{fill:none;stroke:#231F20;stroke-linecap:round;stroke-miterlimit:10;stroke-dasharray:1.7705,1.7705;}
	.st18{fill:none;stroke:#231F20;stroke-linecap:round;stroke-miterlimit:10;stroke-dasharray:2.2165,2.2165;}
	.st19{fill:none;stroke:#231F20;stroke-linecap:round;stroke-miterlimit:10;stroke-dasharray:2.0267,2.0267;}
	.st20{fill:#F6D58E;}
	.st21{fill:#C75528;}
	.st22{fill:#DC8A27;}
	.st23{fill:#2D8382;}
	.st24{fill:#9CAFB1;}
	.st25{fill:#6AABDD;}
	.st26{fill:#097AB5;}
	.st27{fill:#FFFFFF;}
	.st28{fill:#D77D8C;}
	.st29{fill:#993A96;}
	.st30{fill:#69465C;}
	.st31{fill:#837262;}
	.st32{fill:none;stroke:#FFFFFF;stroke-width:2;stroke-miterlimit:10;}
</style>
<g>
	<circle class="st0" cx="5.9" cy="12.2" r="2.4"/>
	<path class="st0" d="M9.8,19.9H2.1c-0.5,0-0.9-0.5-0.8-1c0.4-2.2,2.4-3.8,4.6-3.8s4.2,1.6,4.6,3.8C10.7,19.4,10.3,19.9,9.8,19.9z"
		/>
</g>
<g>
	<circle class="st0" cx="23.3" cy="12.2" r="2.4"/>
	<path class="st0" d="M27.1,19.9h-7.7c-0.5,0-0.9-0.5-0.8-1c0.4-2.2,2.4-3.8,4.6-3.8s4.2,1.6,4.6,3.8C28,19.4,27.6,19.9,27.1,19.9z"
		/>
</g>
<g>
	<circle class="st0" cx="40.6" cy="12.2" r="2.4"/>
	<path class="st0" d="M44.5,19.9h-7.7c-0.5,0-0.9-0.5-0.8-1c0.4-2.2,2.4-3.8,4.6-3.8c2.3,0,4.2,1.6,4.6,3.8
		C45.4,19.4,45,19.9,44.5,19.9z"/>
</g>
<g>
	<circle class="st0" cx="58" cy="12.2" r="2.4"/>
	<path class="st0" d="M61.9,19.9h-7.7c-0.5,0-0.9-0.5-0.8-1c0.4-2.2,2.4-3.8,4.6-3.8s4.2,1.6,4.6,3.8C62.7,19.4,62.4,19.9,61.9,19.9
		z"/>
</g>
<g>
	<circle class="st0" cx="75.4" cy="12.2" r="2.4"/>
	<path class="st0" d="M79.2,19.9h-7.7c-0.5,0-0.9-0.5-0.8-1c0.4-2.2,2.4-3.8,4.6-3.8s4.2,1.6,4.6,3.8C80.1,19.4,79.7,19.9,79.2,19.9
		z"/>
</g>
<g>
	<circle class="st0" cx="92.7" cy="12.2" r="2.4"/>
	<path class="st0" d="M96.6,19.9h-7.7c-0.5,0-0.9-0.5-0.8-1c0.4-2.2,2.4-3.8,4.6-3.8s4.2,1.6,4.6,3.8C97.5,19.4,97.1,19.9,96.6,19.9
		z"/>
</g>
<g>
	<circle class="st1" cx="110.1" cy="12.2" r="2.4"/>
	<path class="st1" d="M113.9,19.9h-7.7c-0.5,0-0.9-0.5-0.8-1c0.4-2.2,2.4-3.8,4.6-3.8c2.3,0,4.2,1.6,4.6,3.8
		C114.8,19.4,114.5,19.9,113.9,19.9z"/>
</g>
<g>
	<circle class="st1" cx="127.4" cy="12.2" r="2.4"/>
	<path class="st1" d="M131.3,19.9h-7.7c-0.5,0-0.9-0.5-0.8-1c0.4-2.2,2.4-3.8,4.6-3.8c2.3,0,4.2,1.6,4.6,3.8
		C132.2,19.4,131.8,19.9,131.3,19.9z"/>
</g>
<g>
	<circle class="st2" cx="144.8" cy="12.2" r="2.4"/>
	<path class="st2" d="M148.7,19.9H141c-0.5,0-0.9-0.5-0.8-1c0.4-2.2,2.4-3.8,4.6-3.8c2.3,0,4.2,1.6,4.6,3.8
		C149.6,19.4,149.2,19.9,148.7,19.9z"/>
</g>
<g>
	<circle class="st2" cx="162.2" cy="12.2" r="2.4"/>
	<path class="st2" d="M166,19.9h-7.7c-0.5,0-0.9-0.5-0.8-1c0.4-2.2,2.4-3.8,4.6-3.8s4.2,1.6,4.6,3.8C166.9,19.4,166.5,19.9,166,19.9
		z"/>
</g>
<g>
	<circle class="st0" cx="5.9" cy="29.6" r="2.4"/>
	<path class="st0" d="M9.8,37.3H2.1c-0.5,0-0.9-0.5-0.8-1c0.4-2.2,2.4-3.8,4.6-3.8s4.2,1.6,4.6,3.8C10.7,36.8,10.3,37.3,9.8,37.3z"
		/>
</g>
<g>
	<circle class="st0" cx="23.3" cy="29.6" r="2.4"/>
	<path class="st0" d="M27.1,37.3h-7.7c-0.5,0-0.9-0.5-0.8-1c0.4-2.2,2.4-3.8,4.6-3.8s4.2,1.6,4.6,3.8C28,36.8,27.6,37.3,27.1,37.3z"
		/>
</g>
<g>
	<circle class="st0" cx="40.6" cy="29.6" r="2.4"/>
	<path class="st0" d="M44.5,37.3h-7.7c-0.5,0-0.9-0.5-0.8-1c0.4-2.2,2.4-3.8,4.6-3.8c2.3,0,4.2,1.6,4.6,3.8
		C45.4,36.8,45,37.3,44.5,37.3z"/>
</g>
<g>
	<circle class="st0" cx="58" cy="29.6" r="2.4"/>
	<path class="st0" d="M61.9,37.3h-7.7c-0.5,0-0.9-0.5-0.8-1c0.4-2.2,2.4-3.8,4.6-3.8s4.2,1.6,4.6,3.8C62.7,36.8,62.4,37.3,61.9,37.3
		z"/>
</g>
<g>
	<circle class="st0" cx="75.4" cy="29.6" r="2.4"/>
	<path class="st0" d="M79.2,37.3h-7.7c-0.5,0-0.9-0.5-0.8-1c0.4-2.2,2.4-3.8,4.6-3.8s4.2,1.6,4.6,3.8C80.1,36.8,79.7,37.3,79.2,37.3
		z"/>
</g>
<g>
	<circle class="st0" cx="92.7" cy="29.6" r="2.4"/>
	<path class="st0" d="M96.6,37.3h-7.7c-0.5,0-0.9-0.5-0.8-1c0.4-2.2,2.4-3.8,4.6-3.8s4.2,1.6,4.6,3.8C97.5,36.8,97.1,37.3,96.6,37.3
		z"/>
</g>
<g>
	<circle class="st0" cx="110.1" cy="29.6" r="2.4"/>
	<path class="st0" d="M113.9,37.3h-7.7c-0.5,0-0.9-0.5-0.8-1c0.4-2.2,2.4-3.8,4.6-3.8c2.3,0,4.2,1.6,4.6,3.8
		C114.8,36.8,114.5,37.3,113.9,37.3z"/>
</g>
<g>
	<circle class="st1" cx="127.4" cy="29.6" r="2.4"/>
	<path class="st1" d="M131.3,37.3h-7.7c-0.5,0-0.9-0.5-0.8-1c0.4-2.2,2.4-3.8,4.6-3.8c2.3,0,4.2,1.6,4.6,3.8
		C132.2,36.8,131.8,37.3,131.3,37.3z"/>
</g>
<g>
	<circle class="st2" cx="144.8" cy="29.6" r="2.4"/>
	<path class="st2" d="M148.7,37.3H141c-0.5,0-0.9-0.5-0.8-1c0.4-2.2,2.4-3.8,4.6-3.8c2.3,0,4.2,1.6,4.6,3.8
		C149.6,36.8,149.2,37.3,148.7,37.3z"/>
</g>
<g>
	<circle class="st3" cx="162.2" cy="29.6" r="2.4"/>
	<path class="st3" d="M166,37.3h-7.7c-0.5,0-0.9-0.5-0.8-1c0.4-2.2,2.4-3.8,4.6-3.8s4.2,1.6,4.6,3.8C166.9,36.8,166.5,37.3,166,37.3
		z"/>
</g>
<g>
	<circle class="st0" cx="5.9" cy="47" r="2.4"/>
	<path class="st0" d="M9.8,54.6H2.1c-0.5,0-0.9-0.5-0.8-1c0.4-2.2,2.4-3.8,4.6-3.8s4.2,1.6,4.6,3.8C10.7,54.2,10.3,54.6,9.8,54.6z"
		/>
</g>
<g>
	<circle class="st0" cx="23.3" cy="47" r="2.4"/>
	<path class="st0" d="M27.1,54.6h-7.7c-0.5,0-0.9-0.5-0.8-1c0.4-2.2,2.4-3.8,4.6-3.8s4.2,1.6,4.6,3.8C28,54.2,27.6,54.6,27.1,54.6z"
		/>
</g>
<g>
	<circle class="st0" cx="40.6" cy="47" r="2.4"/>
	<path class="st0" d="M44.5,54.6h-7.7c-0.5,0-0.9-0.5-0.8-1c0.4-2.2,2.4-3.8,4.6-3.8c2.3,0,4.2,1.6,4.6,3.8
		C45.4,54.2,45,54.6,44.5,54.6z"/>
</g>
<g>
	<circle class="st0" cx="58" cy="47" r="2.4"/>
	<path class="st0" d="M61.9,54.6h-7.7c-0.5,0-0.9-0.5-0.8-1c0.4-2.2,2.4-3.8,4.6-3.8s4.2,1.6,4.6,3.8C62.7,54.2,62.4,54.6,61.9,54.6
		z"/>
</g>
<g>
	<circle class="st0" cx="75.4" cy="47" r="2.4"/>
	<path class="st0" d="M79.2,54.6h-7.7c-0.5,0-0.9-0.5-0.8-1c0.4-2.2,2.4-3.8,4.6-3.8s4.2,1.6,4.6,3.8C80.1,54.2,79.7,54.6,79.2,54.6
		z"/>
</g>
<g>
	<circle class="st0" cx="92.7" cy="47" r="2.4"/>
	<path class="st0" d="M96.6,54.6h-7.7c-0.5,0-0.9-0.5-0.8-1c0.4-2.2,2.4-3.8,4.6-3.8s4.2,1.6,4.6,3.8C97.5,54.2,97.1,54.6,96.6,54.6
		z"/>
</g>
<g>
	<circle class="st0" cx="110.1" cy="47" r="2.4"/>
	<path class="st0" d="M113.9,54.6h-7.7c-0.5,0-0.9-0.5-0.8-1c0.4-2.2,2.4-3.8,4.6-3.8c2.3,0,4.2,1.6,4.6,3.8
		C114.8,54.2,114.5,54.6,113.9,54.6z"/>
</g>
<g>
	<circle class="st1" cx="127.4" cy="47" r="2.4"/>
	<path class="st1" d="M131.3,54.6h-7.7c-0.5,0-0.9-0.5-0.8-1c0.4-2.2,2.4-3.8,4.6-3.8c2.3,0,4.2,1.6,4.6,3.8
		C132.2,54.2,131.8,54.6,131.3,54.6z"/>
</g>
<g>
	<circle class="st2" cx="144.8" cy="47" r="2.4"/>
	<path class="st2" d="M148.7,54.6H141c-0.5,0-0.9-0.5-0.8-1c0.4-2.2,2.4-3.8,4.6-3.8c2.3,0,4.2,1.6,4.6,3.8
		C149.6,54.2,149.2,54.6,148.7,54.6z"/>
</g>
<g>
	<circle class="st3" cx="162.2" cy="47" r="2.4"/>
	<path class="st3" d="M166,54.6h-7.7c-0.5,0-0.9-0.5-0.8-1c0.4-2.2,2.4-3.8,4.6-3.8s4.2,1.6,4.6,3.8C166.9,54.2,166.5,54.6,166,54.6
		z"/>
</g>
<g>
	<circle class="st0" cx="5.9" cy="64.3" r="2.4"/>
	<path class="st0" d="M9.8,72H2.1c-0.5,0-0.9-0.5-0.8-1c0.4-2.2,2.4-3.8,4.6-3.8s4.2,1.6,4.6,3.8C10.7,71.5,10.3,72,9.8,72z"/>
</g>
<g>
	<circle class="st0" cx="23.3" cy="64.3" r="2.4"/>
	<path class="st0" d="M27.1,72h-7.7c-0.5,0-0.9-0.5-0.8-1c0.4-2.2,2.4-3.8,4.6-3.8s4.2,1.6,4.6,3.8C28,71.5,27.6,72,27.1,72z"/>
</g>
<g>
	<circle class="st0" cx="40.6" cy="64.3" r="2.4"/>
	<path class="st0" d="M44.5,72h-7.7c-0.5,0-0.9-0.5-0.8-1c0.4-2.2,2.4-3.8,4.6-3.8c2.3,0,4.2,1.6,4.6,3.8C45.4,71.5,45,72,44.5,72z"
		/>
</g>
<g>
	<circle class="st0" cx="58" cy="64.3" r="2.4"/>
	<path class="st0" d="M61.9,72h-7.7c-0.5,0-0.9-0.5-0.8-1c0.4-2.2,2.4-3.8,4.6-3.8s4.2,1.6,4.6,3.8C62.7,71.5,62.4,72,61.9,72z"/>
</g>
<g>
	<circle class="st0" cx="75.4" cy="64.3" r="2.4"/>
	<path class="st0" d="M79.2,72h-7.7c-0.5,0-0.9-0.5-0.8-1c0.4-2.2,2.4-3.8,4.6-3.8s4.2,1.6,4.6,3.8C80.1,71.5,79.7,72,79.2,72z"/>
</g>
<g>
	<circle class="st0" cx="92.7" cy="64.3" r="2.4"/>
	<path class="st0" d="M96.6,72h-7.7c-0.5,0-0.9-0.5-0.8-1c0.4-2.2,2.4-3.8,4.6-3.8s4.2,1.6,4.6,3.8C97.5,71.5,97.1,72,96.6,72z"/>
</g>
<g>
	<circle class="st0" cx="110.1" cy="64.3" r="2.4"/>
	<path class="st0" d="M113.9,72h-7.7c-0.5,0-0.9-0.5-0.8-1c0.4-2.2,2.4-3.8,4.6-3.8c2.3,0,4.2,1.6,4.6,3.8
		C114.8,71.5,114.5,72,113.9,72z"/>
</g>
<g>
	<circle class="st1" cx="127.4" cy="64.3" r="2.4"/>
	<path class="st1" d="M131.3,72h-7.7c-0.5,0-0.9-0.5-0.8-1c0.4-2.2,2.4-3.8,4.6-3.8c2.3,0,4.2,1.6,4.6,3.8
		C132.2,71.5,131.8,72,131.3,72z"/>
</g>
<g>
	<circle class="st2" cx="144.8" cy="64.3" r="2.4"/>
	<path class="st2" d="M148.7,72H141c-0.5,0-0.9-0.5-0.8-1c0.4-2.2,2.4-3.8,4.6-3.8c2.3,0,4.2,1.6,4.6,3.8
		C149.6,71.5,149.2,72,148.7,72z"/>
</g>
<g>
	<circle class="st3" cx="162.2" cy="64.3" r="2.4"/>
	<path class="st3" d="M166,72h-7.7c-0.5,0-0.9-0.5-0.8-1c0.4-2.2,2.4-3.8,4.6-3.8s4.2,1.6,4.6,3.8C166.9,71.5,166.5,72,166,72z"/>
</g>
<g>
	<circle class="st0" cx="5.9" cy="81.7" r="2.4"/>
	<path class="st0" d="M9.8,89.4H2.1c-0.5,0-0.9-0.5-0.8-1c0.4-2.2,2.4-3.8,4.6-3.8s4.2,1.6,4.6,3.8C10.7,88.9,10.3,89.4,9.8,89.4z"
		/>
</g>
<g>
	<circle class="st0" cx="23.3" cy="81.7" r="2.4"/>
	<path class="st0" d="M27.1,89.4h-7.7c-0.5,0-0.9-0.5-0.8-1c0.4-2.2,2.4-3.8,4.6-3.8s4.2,1.6,4.6,3.8C28,88.9,27.6,89.4,27.1,89.4z"
		/>
</g>
<g>
	<circle class="st0" cx="40.6" cy="81.7" r="2.4"/>
	<path class="st0" d="M44.5,89.4h-7.7c-0.5,0-0.9-0.5-0.8-1c0.4-2.2,2.4-3.8,4.6-3.8c2.3,0,4.2,1.6,4.6,3.8
		C45.4,88.9,45,89.4,44.5,89.4z"/>
</g>
<g>
	<circle class="st0" cx="58" cy="81.7" r="2.4"/>
	<path class="st0" d="M61.9,89.4h-7.7c-0.5,0-0.9-0.5-0.8-1c0.4-2.2,2.4-3.8,4.6-3.8s4.2,1.6,4.6,3.8C62.7,88.9,62.4,89.4,61.9,89.4
		z"/>
</g>
<g>
	<circle class="st0" cx="75.4" cy="81.7" r="2.4"/>
	<path class="st0" d="M79.2,89.4h-7.7c-0.5,0-0.9-0.5-0.8-1c0.4-2.2,2.4-3.8,4.6-3.8s4.2,1.6,4.6,3.8C80.1,88.9,79.7,89.4,79.2,89.4
		z"/>
</g>
<g>
	<circle class="st0" cx="92.7" cy="81.7" r="2.4"/>
	<path class="st0" d="M96.6,89.4h-7.7c-0.5,0-0.9-0.5-0.8-1c0.4-2.2,2.4-3.8,4.6-3.8s4.2,1.6,4.6,3.8C97.5,88.9,97.1,89.4,96.6,89.4
		z"/>
</g>
<g>
	<circle class="st0" cx="110.1" cy="81.7" r="2.4"/>
	<path class="st0" d="M113.9,89.4h-7.7c-0.5,0-0.9-0.5-0.8-1c0.4-2.2,2.4-3.8,4.6-3.8c2.3,0,4.2,1.6,4.6,3.8
		C114.8,88.9,114.5,89.4,113.9,89.4z"/>
</g>
<g>
	<circle class="st1" cx="127.4" cy="81.7" r="2.4"/>
	<path class="st1" d="M131.3,89.4h-7.7c-0.5,0-0.9-0.5-0.8-1c0.4-2.2,2.4-3.8,4.6-3.8c2.3,0,4.2,1.6,4.6,3.8
		C132.2,88.9,131.8,89.4,131.3,89.4z"/>
</g>
<g>
	<circle class="st1" cx="144.8" cy="81.7" r="2.4"/>
	<path class="st1" d="M148.7,89.4H141c-0.5,0-0.9-0.5-0.8-1c0.4-2.2,2.4-3.8,4.6-3.8c2.3,0,4.2,1.6,4.6,3.8
		C149.6,88.9,149.2,89.4,148.7,89.4z"/>
</g>
<g>
	<circle class="st4" cx="162.2" cy="81.7" r="2.4"/>
	<path class="st4" d="M166,89.4h-7.7c-0.5,0-0.9-0.5-0.8-1c0.4-2.2,2.4-3.8,4.6-3.8s4.2,1.6,4.6,3.8C166.9,88.9,166.5,89.4,166,89.4
		z"/>
</g>
<g>
	<circle class="st0" cx="5.9" cy="99" r="2.4"/>
	<path class="st0" d="M9.8,106.7H2.1c-0.5,0-0.9-0.5-0.8-1c0.4-2.2,2.4-3.8,4.6-3.8s4.2,1.6,4.6,3.8
		C10.7,106.3,10.3,106.7,9.8,106.7z"/>
</g>
<g>
	<circle class="st0" cx="23.3" cy="99" r="2.4"/>
	<path class="st0" d="M27.1,106.7h-7.7c-0.5,0-0.9-0.5-0.8-1c0.4-2.2,2.4-3.8,4.6-3.8s4.2,1.6,4.6,3.8
		C28,106.3,27.6,106.7,27.1,106.7z"/>
</g>
<g>
	<circle class="st0" cx="40.6" cy="99" r="2.4"/>
	<path class="st0" d="M44.5,106.7h-7.7c-0.5,0-0.9-0.5-0.8-1c0.4-2.2,2.4-3.8,4.6-3.8c2.3,0,4.2,1.6,4.6,3.8
		C45.4,106.3,45,106.7,44.5,106.7z"/>
</g>
<g>
	<circle class="st0" cx="58" cy="99" r="2.4"/>
	<path class="st0" d="M61.9,106.7h-7.7c-0.5,0-0.9-0.5-0.8-1c0.4-2.2,2.4-3.8,4.6-3.8s4.2,1.6,4.6,3.8
		C62.7,106.3,62.4,106.7,61.9,106.7z"/>
</g>
<g>
	<circle class="st0" cx="75.4" cy="99" r="2.4"/>
	<path class="st0" d="M79.2,106.7h-7.7c-0.5,0-0.9-0.5-0.8-1c0.4-2.2,2.4-3.8,4.6-3.8s4.2,1.6,4.6,3.8
		C80.1,106.3,79.7,106.7,79.2,106.7z"/>
</g>
<g>
	<circle class="st0" cx="92.7" cy="99" r="2.4"/>
	<path class="st0" d="M96.6,106.7h-7.7c-0.5,0-0.9-0.5-0.8-1c0.4-2.2,2.4-3.8,4.6-3.8s4.2,1.6,4.6,3.8
		C97.5,106.3,97.1,106.7,96.6,106.7z"/>
</g>
<g>
	<circle class="st0" cx="110.1" cy="99" r="2.4"/>
	<path class="st0" d="M113.9,106.7h-7.7c-0.5,0-0.9-0.5-0.8-1c0.4-2.2,2.4-3.8,4.6-3.8c2.3,0,4.2,1.6,4.6,3.8
		C114.8,106.3,114.5,106.7,113.9,106.7z"/>
</g>
<g>
	<circle class="st1" cx="127.4" cy="99" r="2.4"/>
	<path class="st1" d="M131.3,106.7h-7.7c-0.5,0-0.9-0.5-0.8-1c0.4-2.2,2.4-3.8,4.6-3.8c2.3,0,4.2,1.6,4.6,3.8
		C132.2,106.3,131.8,106.7,131.3,106.7z"/>
</g>
<g>
	<circle class="st1" cx="144.8" cy="99" r="2.4"/>
	<path class="st1" d="M148.7,106.7H141c-0.5,0-0.9-0.5-0.8-1c0.4-2.2,2.4-3.8,4.6-3.8c2.3,0,4.2,1.6,4.6,3.8
		C149.6,106.3,149.2,106.7,148.7,106.7z"/>
</g>
<g>
	<circle class="st4" cx="162.2" cy="99" r="2.4"/>
	<path class="st4" d="M166,106.7h-7.7c-0.5,0-0.9-0.5-0.8-1c0.4-2.2,2.4-3.8,4.6-3.8s4.2,1.6,4.6,3.8
		C166.9,106.3,166.5,106.7,166,106.7z"/>
</g>
<g>
	<circle class="st0" cx="5.9" cy="116.4" r="2.4"/>
	<path class="st0" d="M9.8,124.1H2.1c-0.5,0-0.9-0.5-0.8-1c0.4-2.2,2.4-3.8,4.6-3.8s4.2,1.6,4.6,3.8
		C10.7,123.6,10.3,124.1,9.8,124.1z"/>
</g>
<g>
	<circle class="st0" cx="23.3" cy="116.4" r="2.4"/>
	<path class="st0" d="M27.1,124.1h-7.7c-0.5,0-0.9-0.5-0.8-1c0.4-2.2,2.4-3.8,4.6-3.8s4.2,1.6,4.6,3.8
		C28,123.6,27.6,124.1,27.1,124.1z"/>
</g>
<g>
	<circle class="st0" cx="40.6" cy="116.4" r="2.4"/>
	<path class="st0" d="M44.5,124.1h-7.7c-0.5,0-0.9-0.5-0.8-1c0.4-2.2,2.4-3.8,4.6-3.8c2.3,0,4.2,1.6,4.6,3.8
		C45.4,123.6,45,124.1,44.5,124.1z"/>
</g>
<g>
	<circle class="st0" cx="58" cy="116.4" r="2.4"/>
	<path class="st0" d="M61.9,124.1h-7.7c-0.5,0-0.9-0.5-0.8-1c0.4-2.2,2.4-3.8,4.6-3.8s4.2,1.6,4.6,3.8
		C62.7,123.6,62.4,124.1,61.9,124.1z"/>
</g>
<g>
	<circle class="st0" cx="75.4" cy="116.4" r="2.4"/>
	<path class="st0" d="M79.2,124.1h-7.7c-0.5,0-0.9-0.5-0.8-1c0.4-2.2,2.4-3.8,4.6-3.8s4.2,1.6,4.6,3.8
		C80.1,123.6,79.7,124.1,79.2,124.1z"/>
</g>
<g>
	<circle class="st0" cx="92.7" cy="116.4" r="2.4"/>
	<path class="st0" d="M96.6,124.1h-7.7c-0.5,0-0.9-0.5-0.8-1c0.4-2.2,2.4-3.8,4.6-3.8s4.2,1.6,4.6,3.8
		C97.5,123.6,97.1,124.1,96.6,124.1z"/>
</g>
<g>
	<circle class="st0" cx="110.1" cy="116.4" r="2.4"/>
	<path class="st0" d="M113.9,124.1h-7.7c-0.5,0-0.9-0.5-0.8-1c0.4-2.2,2.4-3.8,4.6-3.8c2.3,0,4.2,1.6,4.6,3.8
		C114.8,123.6,114.5,124.1,113.9,124.1z"/>
</g>
<g>
	<circle class="st1" cx="127.4" cy="116.4" r="2.4"/>
	<path class="st1" d="M131.3,124.1h-7.7c-0.5,0-0.9-0.5-0.8-1c0.4-2.2,2.4-3.8,4.6-3.8c2.3,0,4.2,1.6,4.6,3.8
		C132.2,123.6,131.8,124.1,131.3,124.1z"/>
</g>
<g>
	<circle class="st1" cx="144.8" cy="116.4" r="2.4"/>
	<path class="st1" d="M148.7,124.1H141c-0.5,0-0.9-0.5-0.8-1c0.4-2.2,2.4-3.8,4.6-3.8c2.3,0,4.2,1.6,4.6,3.8
		C149.6,123.6,149.2,124.1,148.7,124.1z"/>
</g>
<g>
	<circle class="st5" cx="162.2" cy="116.4" r="2.4"/>
	<path class="st5" d="M166,124.1h-7.7c-0.5,0-0.9-0.5-0.8-1c0.4-2.2,2.4-3.8,4.6-3.8s4.2,1.6,4.6,3.8
		C166.9,123.6,166.5,124.1,166,124.1z"/>
</g>
<g>
	<circle class="st0" cx="5.9" cy="133.8" r="2.4"/>
	<path class="st0" d="M9.8,141.4H2.1c-0.5,0-0.9-0.5-0.8-1c0.4-2.2,2.4-3.8,4.6-3.8s4.2,1.6,4.6,3.8C10.7,141,10.3,141.4,9.8,141.4z
		"/>
</g>
<g>
	<circle class="st0" cx="23.3" cy="133.8" r="2.4"/>
	<path class="st0" d="M27.1,141.4h-7.7c-0.5,0-0.9-0.5-0.8-1c0.4-2.2,2.4-3.8,4.6-3.8s4.2,1.6,4.6,3.8C28,141,27.6,141.4,27.1,141.4
		z"/>
</g>
<g>
	<circle class="st0" cx="40.6" cy="133.8" r="2.4"/>
	<path class="st0" d="M44.5,141.4h-7.7c-0.5,0-0.9-0.5-0.8-1c0.4-2.2,2.4-3.8,4.6-3.8c2.3,0,4.2,1.6,4.6,3.8
		C45.4,141,45,141.4,44.5,141.4z"/>
</g>
<g>
	<circle class="st0" cx="58" cy="133.8" r="2.4"/>
	<path class="st0" d="M61.9,141.4h-7.7c-0.5,0-0.9-0.5-0.8-1c0.4-2.2,2.4-3.8,4.6-3.8s4.2,1.6,4.6,3.8
		C62.7,141,62.4,141.4,61.9,141.4z"/>
</g>
<g>
	<circle class="st0" cx="75.4" cy="133.8" r="2.4"/>
	<path class="st0" d="M79.2,141.4h-7.7c-0.5,0-0.9-0.5-0.8-1c0.4-2.2,2.4-3.8,4.6-3.8s4.2,1.6,4.6,3.8
		C80.1,141,79.7,141.4,79.2,141.4z"/>
</g>
<g>
	<circle class="st0" cx="92.7" cy="133.8" r="2.4"/>
	<path class="st0" d="M96.6,141.4h-7.7c-0.5,0-0.9-0.5-0.8-1c0.4-2.2,2.4-3.8,4.6-3.8s4.2,1.6,4.6,3.8
		C97.5,141,97.1,141.4,96.6,141.4z"/>
</g>
<g>
	<circle class="st0" cx="110.1" cy="133.8" r="2.4"/>
	<path class="st0" d="M113.9,141.4h-7.7c-0.5,0-0.9-0.5-0.8-1c0.4-2.2,2.4-3.8,4.6-3.8c2.3,0,4.2,1.6,4.6,3.8
		C114.8,141,114.5,141.4,113.9,141.4z"/>
</g>
<g>
	<circle class="st1" cx="127.4" cy="133.8" r="2.4"/>
	<path class="st1" d="M131.3,141.4h-7.7c-0.5,0-0.9-0.5-0.8-1c0.4-2.2,2.4-3.8,4.6-3.8c2.3,0,4.2,1.6,4.6,3.8
		C132.2,141,131.8,141.4,131.3,141.4z"/>
</g>
<g>
	<circle class="st1" cx="144.8" cy="133.8" r="2.4"/>
	<path class="st1" d="M148.7,141.4H141c-0.5,0-0.9-0.5-0.8-1c0.4-2.2,2.4-3.8,4.6-3.8c2.3,0,4.2,1.6,4.6,3.8
		C149.6,141,149.2,141.4,148.7,141.4z"/>
</g>
<g>
	<circle class="st5" cx="162.2" cy="133.8" r="2.4"/>
	<path class="st5" d="M166,141.4h-7.7c-0.5,0-0.9-0.5-0.8-1c0.4-2.2,2.4-3.8,4.6-3.8s4.2,1.6,4.6,3.8
		C166.9,141,166.5,141.4,166,141.4z"/>
</g>
<g>
	<circle class="st0" cx="5.9" cy="151.1" r="2.4"/>
	<path class="st0" d="M9.8,158.8H2.1c-0.5,0-0.9-0.5-0.8-1c0.4-2.2,2.4-3.8,4.6-3.8s4.2,1.6,4.6,3.8
		C10.7,158.3,10.3,158.8,9.8,158.8z"/>
</g>
<g>
	<circle class="st0" cx="23.3" cy="151.1" r="2.4"/>
	<path class="st0" d="M27.1,158.8h-7.7c-0.5,0-0.9-0.5-0.8-1c0.4-2.2,2.4-3.8,4.6-3.8s4.2,1.6,4.6,3.8
		C28,158.3,27.6,158.8,27.1,158.8z"/>
</g>
<g>
	<circle class="st0" cx="40.6" cy="151.1" r="2.4"/>
	<path class="st0" d="M44.5,158.8h-7.7c-0.5,0-0.9-0.5-0.8-1c0.4-2.2,2.4-3.8,4.6-3.8c2.3,0,4.2,1.6,4.6,3.8
		C45.4,158.3,45,158.8,44.5,158.8z"/>
</g>
<g>
	<circle class="st0" cx="58" cy="151.1" r="2.4"/>
	<path class="st0" d="M61.9,158.8h-7.7c-0.5,0-0.9-0.5-0.8-1c0.4-2.2,2.4-3.8,4.6-3.8s4.2,1.6,4.6,3.8
		C62.7,158.3,62.4,158.8,61.9,158.8z"/>
</g>
<g>
	<circle class="st0" cx="75.4" cy="151.1" r="2.4"/>
	<path class="st0" d="M79.2,158.8h-7.7c-0.5,0-0.9-0.5-0.8-1c0.4-2.2,2.4-3.8,4.6-3.8s4.2,1.6,4.6,3.8
		C80.1,158.3,79.7,158.8,79.2,158.8z"/>
</g>
<g>
	<circle class="st0" cx="92.7" cy="151.1" r="2.4"/>
	<path class="st0" d="M96.6,158.8h-7.7c-0.5,0-0.9-0.5-0.8-1c0.4-2.2,2.4-3.8,4.6-3.8s4.2,1.6,4.6,3.8
		C97.5,158.3,97.1,158.8,96.6,158.8z"/>
</g>
<g>
	<circle class="st0" cx="110.1" cy="151.1" r="2.4"/>
	<path class="st0" d="M113.9,158.8h-7.7c-0.5,0-0.9-0.5-0.8-1c0.4-2.2,2.4-3.8,4.6-3.8c2.3,0,4.2,1.6,4.6,3.8
		C114.8,158.3,114.5,158.8,113.9,158.8z"/>
</g>
<g>
	<circle class="st1" cx="127.4" cy="151.1" r="2.4"/>
	<path class="st1" d="M131.3,158.8h-7.7c-0.5,0-0.9-0.5-0.8-1c0.4-2.2,2.4-3.8,4.6-3.8c2.3,0,4.2,1.6,4.6,3.8
		C132.2,158.3,131.8,158.8,131.3,158.8z"/>
</g>
<g>
	<circle class="st1" cx="144.8" cy="151.1" r="2.4"/>
	<path class="st1" d="M148.7,158.8H141c-0.5,0-0.9-0.5-0.8-1c0.4-2.2,2.4-3.8,4.6-3.8c2.3,0,4.2,1.6,4.6,3.8
		C149.6,158.3,149.2,158.8,148.7,158.8z"/>
</g>
<g>
	<circle class="st6" cx="162.2" cy="151.1" r="2.4"/>
	<path class="st6" d="M166,158.8h-7.7c-0.5,0-0.9-0.5-0.8-1c0.4-2.2,2.4-3.8,4.6-3.8s4.2,1.6,4.6,3.8
		C166.9,158.3,166.5,158.8,166,158.8z"/>
</g>
<g>
	<circle class="st0" cx="5.9" cy="168.5" r="2.4"/>
	<path class="st0" d="M9.8,176.2H2.1c-0.5,0-0.9-0.5-0.8-1c0.4-2.2,2.4-3.8,4.6-3.8s4.2,1.6,4.6,3.8
		C10.7,175.7,10.3,176.2,9.8,176.2z"/>
</g>
<g>
	<circle class="st0" cx="23.3" cy="168.5" r="2.4"/>
	<path class="st0" d="M27.1,176.2h-7.7c-0.5,0-0.9-0.5-0.8-1c0.4-2.2,2.4-3.8,4.6-3.8s4.2,1.6,4.6,3.8
		C28,175.7,27.6,176.2,27.1,176.2z"/>
</g>
<g>
	<circle class="st0" cx="40.6" cy="168.5" r="2.4"/>
	<path class="st0" d="M44.5,176.2h-7.7c-0.5,0-0.9-0.5-0.8-1c0.4-2.2,2.4-3.8,4.6-3.8c2.3,0,4.2,1.6,4.6,3.8
		C45.4,175.7,45,176.2,44.5,176.2z"/>
</g>
<g>
	<circle class="st0" cx="58" cy="168.5" r="2.4"/>
	<path class="st0" d="M61.9,176.2h-7.7c-0.5,0-0.9-0.5-0.8-1c0.4-2.2,2.4-3.8,4.6-3.8s4.2,1.6,4.6,3.8
		C62.7,175.7,62.4,176.2,61.9,176.2z"/>
</g>
<g>
	<circle class="st0" cx="75.4" cy="168.5" r="2.4"/>
	<path class="st0" d="M79.2,176.2h-7.7c-0.5,0-0.9-0.5-0.8-1c0.4-2.2,2.4-3.8,4.6-3.8s4.2,1.6,4.6,3.8
		C80.1,175.7,79.7,176.2,79.2,176.2z"/>
</g>
<g>
	<circle class="st0" cx="92.7" cy="168.5" r="2.4"/>
	<path class="st0" d="M96.6,176.2h-7.7c-0.5,0-0.9-0.5-0.8-1c0.4-2.2,2.4-3.8,4.6-3.8s4.2,1.6,4.6,3.8
		C97.5,175.7,97.1,176.2,96.6,176.2z"/>
</g>
<g>
	<circle class="st0" cx="110.1" cy="168.5" r="2.4"/>
	<path class="st0" d="M113.9,176.2h-7.7c-0.5,0-0.9-0.5-0.8-1c0.4-2.2,2.4-3.8,4.6-3.8c2.3,0,4.2,1.6,4.6,3.8
		C114.8,175.7,114.5,176.2,113.9,176.2z"/>
</g>
<g>
	<circle class="st1" cx="127.4" cy="168.5" r="2.4"/>
	<path class="st1" d="M131.3,176.2h-7.7c-0.5,0-0.9-0.5-0.8-1c0.4-2.2,2.4-3.8,4.6-3.8c2.3,0,4.2,1.6,4.6,3.8
		C132.2,175.7,131.8,176.2,131.3,176.2z"/>
</g>
<g>
	<circle class="st1" cx="144.8" cy="168.5" r="2.4"/>
	<path class="st1" d="M148.7,176.2H141c-0.5,0-0.9-0.5-0.8-1c0.4-2.2,2.4-3.8,4.6-3.8c2.3,0,4.2,1.6,4.6,3.8
		C149.6,175.7,149.2,176.2,148.7,176.2z"/>
</g>
<g>
	<circle class="st7" cx="162.2" cy="168.5" r="2.4"/>
	<path class="st7" d="M166,176.2h-7.7c-0.5,0-0.9-0.5-0.8-1c0.4-2.2,2.4-3.8,4.6-3.8s4.2,1.6,4.6,3.8
		C166.9,175.7,166.5,176.2,166,176.2z"/>
</g>
<text transform="matrix(1 0 0 1 66.3176 187.3013)"><tspan x="0" y="0" class="st8 st9 st10">17% </tspan><tspan x="20.7" y="0" class="st8 st11 st10">Hispanic</tspan></text>
<text transform="matrix(1 0 0 1 184.2512 175.1748)"><tspan x="0" y="0" class="st8 st9 st10">1% </tspan><tspan x="14.9" y="0" class="st8 st11 st10">No Response</tspan></text>
<text transform="matrix(1 0 0 1 184.2507 97.6737)"><tspan x="0" y="0" class="st8 st9 st10">2% </tspan><tspan x="17.5" y="0" class="st8 st11 st10">Asian</tspan></text>
<text transform="matrix(1 0 0 1 184.2507 54.6347)"><tspan x="0" y="0" class="st8 st9 st10">3% </tspan><tspan x="17.2" y="0" class="st8 st11 st10">2+ Races</tspan></text>
<text transform="matrix(1 0 0 1 183.6074 10.7894)"><tspan x="0" y="0" class="st8 st9 st10">5% </tspan><tspan x="17.5" y="0" class="st8 st11 st10">Black/</tspan><tspan x="0" y="12" class="st8 st11 st10">African American</tspan></text>
<text transform="matrix(1 0 0 1 0.4736 187.8067)"><tspan x="0" y="0" class="st8 st9 st10">69% </tspan><tspan x="24.1" y="0" class="st8 st11 st10">White</tspan></text>
<g>
	<g>
		<polyline class="st12" points="60,179.8 55.3,189.9 1,189.9 		"/>
		<g>
			<polygon class="st8" points="55.9,182.8 56.5,183.3 59.9,179.8 59.5,184.7 60.3,184.8 60.9,177.8 			"/>
		</g>
	</g>
</g>
<g>
	<g>
		<polyline class="st12" points="136.3,179.8 131.6,189.9 65.8,189.9 		"/>
		<g>
			<polygon class="st8" points="132.3,182.8 132.8,183.3 136.3,179.8 135.9,184.7 136.6,184.8 137.2,177.8 			"/>
		</g>
	</g>
</g>
<g>
	<line class="st13" x1="118.8" y1="176.2" x2="118.8" y2="23.6"/>
	<line class="st13" x1="118.8" y1="23.6" x2="101.4" y2="23.6"/>
	<line class="st13" x1="101.4" y1="23.6" x2="101.4" y2="9.9"/>
	<line class="st13" x1="135.9" y1="75.7" x2="135.9" y2="9.9"/>
	<line class="st13" x1="166.8" y1="75.7" x2="135.9" y2="75.7"/>
	<polyline class="st13" points="153.5,176.2 153.5,23.6 166.8,23.6 	"/>
	<line class="st13" x1="166.8" y1="162.5" x2="153.5" y2="162.5"/>
	<line class="st13" x1="166.8" y1="145.1" x2="153.5" y2="145.1"/>
	<line class="st13" x1="166.8" y1="110.4" x2="153.5" y2="110.4"/>
</g>
<text transform="matrix(1 0 0 1 184.3056 124.7138)"><tspan x="0" y="0" class="st8 st9 st10">2% </tspan><tspan x="17.5" y="0" class="st8 st11 st10">Native American/</tspan><tspan x="0" y="11" class="st8 st11 st10">Alaskan Native</tspan></text>
<text transform="matrix(1 0 0 1 184.2512 151.0671)"><tspan x="0" y="0" class="st8 st9 st10">1% </tspan><tspan x="14.9" y="0" class="st8 st11 st10">Native Hawaiian/</tspan><tspan x="0" y="11" class="st8 st11 st10">Other Pacific Islander</tspan></text>
<g>
	<g>
		<line class="st12" x1="171.6" y1="14.6" x2="182.2" y2="14.6"/>
		<g>
			<polygon class="st8" points="176.1,17 176.3,16.3 171.7,14.6 176.3,12.9 176.1,12.2 169.5,14.6 			"/>
		</g>
	</g>
</g>
<g>
	<g>
		<line class="st12" x1="171.6" y1="51" x2="182.2" y2="51"/>
		<g>
			<polygon class="st8" points="176.1,53.4 176.3,52.7 171.7,51 176.3,49.3 176.1,48.6 169.5,51 			"/>
		</g>
	</g>
</g>
<g>
	<g>
		<line class="st12" x1="171.6" y1="94.3" x2="182.2" y2="94.3"/>
		<g>
			<polygon class="st8" points="176.1,96.7 176.3,96 171.7,94.3 176.3,92.7 176.1,92 169.5,94.3 			"/>
		</g>
	</g>
</g>
<g>
	<g>
		<line class="st12" x1="171.6" y1="128.7" x2="182.2" y2="128.7"/>
		<g>
			<polygon class="st8" points="176.1,131.1 176.3,130.4 171.7,128.7 176.3,127 176.1,126.3 169.5,128.7 			"/>
		</g>
	</g>
</g>
<g>
	<g>
		<line class="st12" x1="171.6" y1="153.3" x2="182.2" y2="153.3"/>
		<g>
			<polygon class="st8" points="176.1,155.7 176.3,155 171.7,153.3 176.3,151.6 176.1,150.9 169.5,153.3 			"/>
		</g>
	</g>
</g>
<g>
	<g>
		<line class="st12" x1="171.6" y1="172.4" x2="182.2" y2="172.4"/>
		<g>
			<polygon class="st8" points="176.1,174.8 176.3,174.1 171.7,172.4 176.3,170.8 176.1,170 169.5,172.4 			"/>
		</g>
	</g>
</g>
</svg>
